<?xml version="1.0" encoding="utf-8"?>
<!-- Generator: Adobe Illustrator 28.0.0, SVG Export Plug-In . SVG Version: 6.00 Build 0)  -->
<svg version="1.1" id="Layer_1" xmlns="http://www.w3.org/2000/svg" xmlns:xlink="http://www.w3.org/1999/xlink" x="0px" y="0px"
	 viewBox="0 0 48 48" style="enable-background:new 0 0 48 48;" xml:space="preserve">
<style type="text/css">
	.st0{fill:#EC1C24;}
	.st1{fill:#1B75BB;stroke:#1B75BB;stroke-miterlimit:10;}
	.st2{fill:#FFFFFF;stroke:#FF0000;stroke-width:0.5;stroke-miterlimit:10;}
	.st3{font-family:'Impact';}
	.st4{font-size:10.7612px;}
	.st5{fill:#FF0000;stroke:#FFFFFF;stroke-width:0.5;stroke-miterlimit:10;}
	.st6{font-size:12.2057px;}
</style>
<path class="st0" d="M25.25,1.04c-0.89-0.1-1.8-0.15-2.73-0.14C12.98,1.01,4.97,7.18,2.32,15.58C13.87,15.64,23.51,9.48,25.25,1.04z
	"/>
<path class="st1" d="M26.38,1.47c-1.91,9.1-12.03,15.64-24.06,15.43c-0.67,2.13-1.03,4.39-1.03,6.75C1.28,35.99,11.25,46,23.54,46
	C35.83,46,45.8,35.99,45.8,23.64C45.8,12.26,37.33,2.87,26.38,1.47z"/>
<text transform="matrix(1.656 0 0 1 5.3521 37.5557)" class="st2 st3 st4">Tech</text>
<text transform="matrix(1.577 0 0 1 2.2212 27.125)" class="st5 st3 st6">Maas</text>
</svg>
