<?xml version="1.0" encoding="utf-8"?>
<!-- Generator: Adobe Illustrator 28.0.0, SVG Export Plug-In . SVG Version: 6.00 Build 0)  -->
<svg version="1.1" id="Layer_1" xmlns="http://www.w3.org/2000/svg" xmlns:xlink="http://www.w3.org/1999/xlink" x="0px" y="0px"
	 viewBox="0 0 48 48" style="enable-background:new 0 0 48 48;" xml:space="preserve">
<style type="text/css">
	.st0{fill:#EC1C24;}
	.st1{fill:#1B75BB;}
	.st2{fill:#FFFFFF;stroke:#FFFFFF;stroke-width:0.5;stroke-miterlimit:10;}
	.st3{font-family:'MakeupPersonalUse-Regular';}
	.st4{font-size:23.4515px;}
</style>
<g>
	<path class="st0" d="M30.86,2.4c-0.89-0.32-1.8-0.59-2.73-0.8C18.43-0.62,9,3.54,4.55,11.23C16.24,14.11,27.32,10.35,30.86,2.4z"/>
	<path class="st1" d="M31.97,2.82c-4.02,8.6-15.71,12.5-27.79,9.14c-1.17,1.95-2.05,4.12-2.6,6.48
		C-1.26,30.79,6.47,43.4,18.85,46.61c12.38,3.21,24.72-4.2,27.56-16.55C49.03,18.68,42.67,7.08,31.97,2.82z"/>
	<text transform="matrix(0.9689 0 0 1 7.6802 34.8945)" class="st2 st3 st4">M</text>
</g>
</svg>
